# xmcd
#
# Track frame offsets: 
#        150
#        25842
#        46329
#        63426
#        84350
#        98047
#        113104
#        133059
#        151936
#        170643
#
# Disc length: 2522 seconds
#
# Revision: 6
# Processed by: cddbd v1.5.2PL0 Copyright (c) Steve Scherf et al.
# Submitted via: ExactAudioCopy v0.99pb5
#
DISCID=7909d80a
DTITLE=John Lee Hooker - The Healer
DYEAR=1989
DGENRE=Blues
TTITLE0=The Healer
TTITLE1=I'm In The Mood
TTITLE2=Baby Lee
TTITLE3=Cuttin' Out
TTITLE4=Think Twice Before You Go
TTITLE5=Sally Mae
TTITLE6=That's Alright
TTITLE7=Rockin' Chair
TTITLE8=My Dream
TTITLE9=No Substitute
EXTD=
EXTT0=
EXTT1=
EXTT2=
EXTT3=
EXTT4=
EXTT5=
EXTT6=
EXTT7=
EXTT8=
EXTT9=
PLAYORDER=
